<?xml version="1.0" encoding="UTF-8" standalone="no"?>
<svg
   xmlns:dc="http://purl.org/dc/elements/1.1/"
   xmlns:cc="http://creativecommons.org/ns#"
   xmlns:rdf="http://www.w3.org/1999/02/22-rdf-syntax-ns#"
   xmlns:svg="http://www.w3.org/2000/svg"
   xmlns="http://www.w3.org/2000/svg"
   id="svg26"
   version="1.1"
   viewBox="0 0 92.864807 65.16983"
   height="65.16983mm"
   width="92.864807mm">
  <defs
     id="defs20" />
  <metadata
     id="metadata23">
    <rdf:RDF>
      <cc:Work
         rdf:about="">
        <dc:format>image/svg+xml</dc:format>
        <dc:type
           rdf:resource="http://purl.org/dc/dcmitype/StillImage" />
        <dc:title></dc:title>
      </cc:Work>
    </rdf:RDF>
  </metadata>
  <g
     transform="translate(-26.051821,-122.74139)"
     id="layer1">
    <g
       id="g963">
      <path
         style="fill:none;fill-opacity:1;stroke:#000000;stroke-width:4;stroke-miterlimit:4;stroke-dasharray:none;stroke-opacity:0.607287"
         d="m 74.300853,125.24143 a 41.955358,24.190477 0 0 0 -41.794863,24.19026 41.955358,24.190477 0 0 0 41.955576,24.19077 41.955358,24.190477 0 0 0 5.645134,-0.22014 19.411558,15.227312 26.406255 0 0 8.912119,7.65793 19.411558,15.227312 26.406255 0 0 17.168981,1.23972 17.670387,17.670387 0 0 1 -8.870779,-12.5827 41.955358,24.190477 0 0 0 19.099609,-20.28558 41.955358,24.190477 0 0 0 -41.955064,-24.19026 41.955358,24.190477 0 0 0 -0.160713,0 z"
         id="path28-0-3" />
      <path
         style="fill:none;fill-opacity:1;stroke:#e27900;stroke-width:4.5;stroke-miterlimit:4;stroke-dasharray:none;stroke-opacity:1"
         d="m 70.596684,126.82894 a 41.955357,24.190477 0 0 0 -41.794863,24.19026 41.955357,24.190477 0 0 0 41.955576,24.19077 41.955357,24.190477 0 0 0 5.645134,-0.22014 19.411558,15.227312 26.406255 0 0 8.912119,7.65793 19.411558,15.227312 26.406255 0 0 17.16892,1.23972 17.670387,17.670387 0 0 1 -8.870718,-12.5827 41.955357,24.190477 0 0 0 19.099548,-20.28558 41.955357,24.190477 0 0 0 -41.955003,-24.19026 41.955357,24.190477 0 0 0 -0.160713,0 z"
         id="path28-0" />
    </g>
  </g>
</svg>
